<?xml version="1.0" standalone="no"?>
<!DOCTYPE svg PUBLIC "-//W3C//DTD SVG 20010904//EN"
 "http://www.w3.org/TR/2001/REC-SVG-20010904/DTD/svg10.dtd">
<svg version="1.0" xmlns="http://www.w3.org/2000/svg"
 width="1139.000000pt" height="623.000000pt" viewBox="0 0 1139.000000 623.000000"
 preserveAspectRatio="xMidYMid meet">

<g transform="translate(0.000000,623.000000) scale(0.100000,-0.100000)"
fill="#000000" stroke="none">
<path d="M3495 6224 c-284 -13 -595 -69 -822 -148 -143 -50 -493 -213 -617
-286 -167 -100 -311 -213 -475 -374 -453 -445 -709 -854 -855 -1364 -19 -64
-37 -136 -41 -159 l-7 -43 739 1 738 0 68 139 c60 125 76 149 152 230 47 49
90 101 95 115 5 14 16 25 25 25 8 0 48 27 88 61 140 118 310 217 476 279 255
94 636 124 881 70 251 -55 520 -194 708 -366 94 -85 263 -311 336 -447 l58
-107 749 0 749 0 0 45 c0 93 -125 428 -258 690 -224 440 -525 796 -898 1063
-438 312 -947 507 -1464 561 -112 12 -326 19 -425 15z"/>
<path d="M7235 5113 c-7 -1021 -5 -1276 11 -1415 l7 -58 -3607 0 -3606 0 0
-130 0 -130 448 -1 c2028 -2 6879 -21 6967 -27 61 -5 112 -7 114 -6 16 11 20
327 21 1502 l0 1352 -174 0 -174 0 -7 -1087z"/>
<path d="M7850 3118 l0 -3081 148 6 c81 4 162 10 180 13 l32 6 0 3069 0 3069
-180 0 -180 0 0 -3082z"/>
<path d="M8450 3118 l0 -3081 144 7 c80 4 162 13 183 20 l38 13 -1 2974 c0
1636 -4 3013 -8 3062 l-8 87 -174 0 -174 0 0 -3082z"/>
<path d="M9070 3993 c0 -1215 3 -2596 7 -3070 l6 -863 179 0 178 0 0 3070 0
3070 -185 0 -185 0 0 -2207z"/>
<path d="M6163 6149 c-64 -25 -123 -88 -167 -179 -25 -53 -31 -77 -30 -130 1
-135 80 -254 199 -300 88 -34 201 -34 275 1 172 81 246 289 158 446 -41 73
-127 149 -190 168 -72 21 -181 19 -245 -6z"/>
<path d="M9744 3168 c4 -970 9 -1791 12 -1826 l6 -62 230 0 231 0 -9 288 c-14
451 -11 2566 4 2977 7 193 16 358 18 368 5 16 -11 17 -246 17 l-252 0 6 -1762z"/>
<path d="M10410 3094 l0 -1236 214 3 c118 3 218 7 221 11 10 10 -9 2435 -18
2445 -5 4 -101 9 -213 11 l-204 3 0 -1237z"/>
<path d="M11060 3697 l-45 -12 -3 -688 -2 -688 122 6 c68 3 151 8 186 11 l63
6 -6 266 c-3 147 -8 455 -11 685 l-6 417 -38 0 c-20 0 -77 2 -126 5 -55 3
-106 0 -134 -8z"/>
<path d="M14 3033 c4 -65 9 -119 10 -121 2 -2 1628 -8 3612 -13 1985 -6 3610
-12 3613 -14 2 -2 0 -49 -4 -104 l-7 -101 -3599 0 -3599 0 0 -140 0 -140 3424
0 c3517 0 3494 0 3739 35 l37 5 0 -1201 0 -1202 153 6 c83 3 162 9 175 13 l22
6 0 1544 0 1544 -3791 0 -3792 0 7 -117z"/>
<path d="M1225 2199 c-231 -3 -442 -7 -469 -8 l-48 -1 7 -57 c27 -220 172
-503 440 -858 190 -253 354 -423 597 -618 290 -233 678 -441 1001 -537 456
-135 943 -150 1417 -44 605 136 1108 399 1509 788 141 138 246 264 392 476
186 268 279 428 335 577 29 76 77 263 70 271 -7 6 -1421 22 -1461 15 -16 -2
-40 -6 -52 -9 -13 -2 -40 -31 -69 -76 -272 -415 -734 -702 -1163 -724 -189
-10 -397 18 -575 77 -196 65 -372 169 -563 333 -130 111 -203 195 -264 306
-25 44 -54 83 -67 89 -25 12 -314 12 -1037 0z"/>
<path d="M6143 726 c-41 -19 -64 -40 -100 -90 -45 -62 -48 -64 -59 -44 l-11
21 -14 -24 c-20 -35 -19 -265 1 -299 l15 -25 3 24 c3 21 7 18 37 -26 85 -127
214 -187 349 -162 177 32 277 144 279 314 1 60 -3 78 -26 118 -42 71 -131 156
-196 185 -43 20 -76 27 -141 29 -74 4 -92 1 -137 -21z"/>
</g>
</svg>
