<svg width="158" height="86" viewBox="0 0 158 86" fill="none" xmlns="http://www.w3.org/2000/svg">
<path d="M76.5592 9.6418C82.7003 14.7163 87.035 21.7229 89.5693 29.2194C89.683 29.5548 89.683 29.5548 89.799 29.8968C89.902 30.2136 89.902 30.2136 90.0071 30.5369C90.0677 30.7234 90.1283 30.9098 90.1908 31.102C90.3198 31.6588 90.3198 31.6588 90.3198 32.9098C83.467 32.9098 76.6142 32.9098 69.5538 32.9098C69.0584 32.0016 68.563 31.0934 68.0526 30.1577C67.4298 29.2042 66.7497 28.3046 66.0511 27.4055C65.9153 27.2278 65.7795 27.0501 65.6396 26.867C62.6089 23.1431 57.2919 20.417 52.5406 19.8997C45.957 19.5358 40.6226 20.8698 35.5275 25.1538C35.3872 25.2992 35.2469 25.4447 35.1023 25.5946C34.7769 25.9044 34.7769 25.9044 34.2765 25.9044C34.2097 26.0556 34.143 26.2069 34.0742 26.3627C33.7664 26.9229 33.4973 27.1754 33.0099 27.5775C31.5979 29.0336 31.5979 29.0336 29.773 32.9098C23.0028 32.9098 16.2326 32.9098 9.25717 32.9098C10.9515 24.4382 15.1797 17.6856 21.2665 11.6433C21.4131 11.491 21.5598 11.3386 21.7109 11.1816C22.8995 9.95939 24.1449 8.89743 25.5197 7.89045C25.7269 7.73866 25.9341 7.58688 26.1476 7.4305C27.8546 6.2079 29.5959 5.22257 31.5106 4.36795C32.0609 4.12134 32.6061 3.86504 33.1516 3.60784C35.3903 2.56495 37.6088 1.66065 40.031 1.13523C40.2337 1.09007 40.4365 1.04492 40.6454 0.998401C53.6955 -1.80379 66.2363 1.35997 76.5592 9.6418Z" fill="#02111B"/>
<path d="M31.5244 55.6773C31.843 56.1328 31.843 56.1328 32.1186 56.7094C33.1407 58.6728 34.584 60.0341 36.278 61.4318C36.5369 61.6485 36.5369 61.6485 36.8009 61.8696C41.5167 65.69 46.7772 67.1378 52.7458 66.6252C58.6218 65.6492 63.5938 62.1584 67.0518 57.4287C67.1325 57.2845 67.2131 57.1404 67.2962 56.9919C67.5962 56.4909 67.8841 56.0856 68.3028 55.6773C69.0883 55.5046 69.6144 55.4531 70.397 55.4785C70.6046 55.4782 70.8122 55.478 71.0261 55.4777C71.7101 55.4789 72.3932 55.4925 73.077 55.5063C73.552 55.5096 74.027 55.5121 74.502 55.5138C75.7505 55.5205 76.9987 55.5377 78.247 55.5571C79.5215 55.575 80.7961 55.583 82.0708 55.5918C84.5704 55.6106 87.0698 55.6405 89.5692 55.6773C89.4517 56.1595 89.3334 56.6415 89.2147 57.1234C89.1488 57.3918 89.083 57.6602 89.0152 57.9368C88.127 61.2936 85.9609 64.6208 83.9418 67.4139C83.6462 67.8238 83.3674 68.2458 83.0955 68.6717C77.9038 76.1539 70.2525 81.3471 61.5476 83.9492C61.3675 84.0048 61.1875 84.0604 61.002 84.1178C54.4876 86.1174 47.9915 86.5982 41.2819 85.2001C41.0236 85.1518 40.7652 85.1034 40.4991 85.0535C31.5168 83.1297 22.6892 77.0493 17.0131 69.9383C16.8354 69.7165 16.6577 69.4946 16.4746 69.266C13.8462 65.7897 9.75754 60.1892 9.75754 55.6773C12.4478 55.6388 15.1381 55.6018 17.8284 55.5665C19.0775 55.5501 20.3267 55.5332 21.5759 55.5151C22.7812 55.4978 23.9865 55.4817 25.1918 55.4665C25.6519 55.4605 26.1119 55.454 26.572 55.447C27.2159 55.4374 27.8598 55.4293 28.5037 55.4217C28.6943 55.4185 28.8849 55.4152 29.0812 55.4119C30.7975 55.3947 30.7975 55.3947 31.5244 55.6773Z" fill="#02111B"/>
<path d="M0 42.417C34.5942 42.417 69.1885 42.417 104.831 42.417C104.831 56.5354 104.831 70.6538 104.831 85.2001C103.211 85.6051 101.497 85.4503 99.8272 85.4503C99.8272 74.5518 99.8272 63.6534 99.8272 52.4247C98.2585 52.5899 96.6898 52.755 95.0735 52.9251C93.6832 52.9666 92.3012 52.9912 90.9115 52.9853C90.5173 52.9855 90.1231 52.9859 89.7289 52.9866C88.6613 52.9877 87.5938 52.9857 86.5263 52.9832C85.3692 52.981 84.2121 52.9818 83.055 52.9821C81.0554 52.9824 79.0559 52.9808 77.0563 52.978C74.1654 52.9739 71.2745 52.9726 68.3835 52.972C63.692 52.9709 59.0004 52.9676 54.3089 52.9629C49.7543 52.9583 45.1998 52.9547 40.6453 52.9526C40.364 52.9525 40.0828 52.9523 39.793 52.9522C38.382 52.9516 36.9709 52.9509 35.5599 52.9503C23.8734 52.9451 12.1869 52.9363 0.500387 52.9251C0.500387 51.6041 0.500387 50.2831 0.500387 48.922C33.2782 48.922 66.0561 48.922 99.8272 48.922C99.9097 48.0138 99.9923 47.1056 100.077 46.1699C67.1344 46.0873 34.1914 46.0048 0.250193 45.9197C0.16763 44.7638 0.0850658 43.6079 0 42.417Z" fill="#02111B"/>
<path d="M99.8272 0.384521C101.478 0.384521 103.13 0.384521 104.831 0.384521C104.837 5.20619 104.841 10.0279 104.844 14.8495C104.845 17.0884 104.847 19.3273 104.85 21.5662C104.852 23.5182 104.854 25.4702 104.855 27.4222C104.855 28.4553 104.856 29.4883 104.857 30.5214C104.859 31.495 104.86 32.4685 104.859 33.4421C104.859 33.7982 104.86 34.1543 104.861 34.5105C104.866 36.3333 104.83 38.1081 104.581 39.9151C104.324 39.8975 104.067 39.8799 103.802 39.8617C101.207 39.6919 98.6258 39.6269 96.0262 39.6253C95.6108 39.6242 95.1954 39.6229 94.7799 39.6216C93.6513 39.6182 92.5228 39.6163 91.3942 39.6147C90.1723 39.6127 88.9504 39.6093 87.7285 39.606C85.6157 39.6006 83.503 39.596 81.3903 39.5921C78.3357 39.5864 75.2811 39.5794 72.2265 39.572C67.2696 39.5601 62.3128 39.5493 57.3559 39.5391C52.5431 39.5293 47.7303 39.5189 42.9175 39.5078C42.6204 39.5072 42.3234 39.5065 42.0173 39.5058C40.5269 39.5024 39.0365 39.4989 37.5461 39.4955C25.1975 39.467 12.8489 39.4403 0.500366 39.4147C0.500366 38.1762 0.500366 36.9378 0.500366 35.6618C33.3608 35.6618 66.2212 35.6618 100.077 35.6618C99.9948 35.0013 99.9122 34.3408 99.8272 33.6602C99.807 33.1592 99.7966 32.6577 99.7971 32.1563C99.7966 31.7322 99.7965 31.7322 99.796 31.2995C99.7969 30.9955 99.7978 30.6916 99.7988 30.3784C99.7987 30.0536 99.7987 29.7287 99.7986 29.394C99.7986 28.5087 99.8 27.6233 99.8018 26.738C99.8034 25.8107 99.8035 24.8834 99.8038 23.9562C99.8046 22.2027 99.8066 20.4492 99.8091 18.6957C99.8119 16.6983 99.8133 14.701 99.8146 12.7037C99.8172 8.59731 99.8216 4.49092 99.8272 0.384521Z" fill="#02111B"/>
<path d="M125.097 0.384521C126.831 0.384521 128.564 0.384521 130.351 0.384521C130.351 28.3737 130.351 56.3628 130.351 85.2001C128.699 85.2001 127.048 85.2001 125.347 85.2001C125.302 80.3057 125.26 75.4113 125.222 70.5169C125.22 70.3269 125.219 70.137 125.217 69.9413C125.095 54.2302 125.075 38.5196 125.081 22.8081C125.081 22.5287 125.081 22.2494 125.081 21.9616C125.084 14.7692 125.089 7.57687 125.097 0.384521Z" fill="#02111B"/>
<path d="M116.59 0.384521C118.241 0.384521 119.893 0.384521 121.594 0.384521C121.64 4.62734 121.682 8.8702 121.719 13.1131C121.721 13.2808 121.722 13.4485 121.724 13.6212C121.862 29.3077 121.866 44.9941 121.86 60.6811C121.86 60.9814 121.86 61.2817 121.859 61.5911C121.857 69.3773 121.852 77.1636 121.844 84.9499C120.593 85.4503 120.593 85.4503 116.59 85.4503C116.59 57.3786 116.59 29.3069 116.59 0.384521Z" fill="#02111B"/>
<path d="M108.334 0.384521C109.985 0.384521 111.636 0.384521 113.338 0.384521C113.338 28.3737 113.338 56.3628 113.338 85.2001C112.087 85.4503 112.087 85.4503 108.334 85.4503C108.334 57.3786 108.334 29.3069 108.334 0.384521Z" fill="#02111B"/>
<path d="M134.354 17.8982C136.666 17.8982 138.977 17.8982 141.359 17.8982C141.324 18.6882 141.288 19.4781 141.251 20.292C140.899 28.4198 140.787 36.531 140.81 44.6657C140.813 45.8983 140.813 47.131 140.812 48.3637C140.812 49.573 140.814 50.7824 140.816 51.9918C140.816 52.5577 140.817 53.1236 140.817 53.6894C140.819 56.703 140.867 59.7021 141.053 62.7103C141.123 63.9276 141.138 65.1388 141.125 66.3575C141.12 67.0438 141.114 67.7301 141.109 68.4373C138.962 68.4373 136.816 68.4373 134.604 68.4373C134.521 51.7594 134.439 35.0815 134.354 17.8982Z" fill="#02111B"/>
<path d="M143.611 26.1545C149.115 26.1545 149.115 26.1545 149.616 26.4047C149.698 37.5509 149.781 48.697 149.866 60.1808C147.808 60.5239 145.698 60.431 143.611 60.431C143.611 49.1198 143.611 37.8086 143.611 26.1545Z" fill="#02111B"/>
<path d="M156.871 34.9113C156.995 44.3236 156.995 44.3236 157.121 53.926C154.521 54.0499 154.521 54.0499 151.867 54.1762C151.867 47.9014 151.867 41.6265 151.867 35.1615C153.361 34.4147 155.201 34.9113 156.871 34.9113Z" fill="#02111B"/>
<path d="M88.8656 1.06889C90.1627 1.75102 91.0027 2.81057 91.5708 4.13767C91.8157 5.83817 91.5921 7.01913 90.57 8.39096C89.5302 9.43622 88.6265 9.92613 87.1455 9.9703C85.8342 9.95499 84.8825 9.65258 83.8148 8.89134C82.7874 7.83689 82.3738 6.9048 82.2042 5.45118C82.249 3.96899 82.9755 2.80982 83.9321 1.71587C85.2919 0.535986 87.2055 0.511584 88.8656 1.06889Z" fill="#02111B"/>
<path d="M88.3867 75.8599C89.8985 76.5231 90.8399 77.6507 91.6803 79.0391C91.9693 80.3882 91.771 81.5546 91.1486 82.7764C89.9622 84.1552 88.8827 84.6319 87.1299 84.7779C85.7248 84.7518 84.6187 84.2382 83.6144 83.2602C82.5939 82.0935 82.2202 81.3668 82.2452 79.8063C82.4027 78.3998 83.1062 77.3184 84.0806 76.3183C85.3618 75.312 86.8809 75.4175 88.3867 75.8599Z" fill="#02111B"/>
<path d="M82.5638 77.4443C82.7976 78.1975 82.8251 78.4117 82.5638 79.1957C82.5465 79.7532 82.5427 80.3111 82.5482 80.8689C82.5504 81.164 82.5527 81.4591 82.555 81.7631C82.5579 81.9892 82.5608 82.2153 82.5638 82.4482C81.9234 81.8078 81.9982 81.3794 81.995 80.5053C81.9969 80.3208 81.9989 80.1363 82.0009 79.9463C81.9989 79.7618 81.997 79.5773 81.995 79.3872C82 78.0081 82 78.0081 82.5638 77.4443Z" fill="#02111B"/>
</svg>
